<svg width="48" height="48" viewBox="0 0 48 48" fill="none" xmlns="http://www.w3.org/2000/svg">
<path fill-rule="evenodd" clip-rule="evenodd" d="M0.813559 0.813559H47.1864V47.1864H0.813559V0.813559ZM0 48V0H48V48H0ZM14.4286 19.5255H7.98518C7.86586 19.5255 7.76443 19.4838 7.68091 19.4003C7.59738 19.3167 7.55562 19.2153 7.55562 19.096V7.42628C7.55562 7.30696 7.59738 7.20554 7.68091 7.12201C7.76443 7.03849 7.86586 6.99672 7.98518 6.99672C8.1045 6.99672 8.20592 7.03849 8.28945 7.12201C8.38491 7.20554 8.43264 7.30696 8.43264 7.42628V18.6485H14.4286C14.5479 18.6485 14.6493 18.6963 14.7328 18.7917C14.8283 18.8752 14.876 18.9767 14.876 19.096C14.876 19.2153 14.8283 19.3167 14.7328 19.4003C14.6493 19.4838 14.5479 19.5255 14.4286 19.5255ZM22.1513 19.096V13.5117L17.9452 7.76635C17.79 7.51578 17.8199 7.31293 18.0347 7.15781C18.1301 7.07428 18.2375 7.04445 18.3568 7.06832C18.4881 7.08025 18.5835 7.13394 18.6432 7.2294L22.5629 12.6168L26.5006 7.2294C26.5602 7.13394 26.6497 7.08025 26.769 7.06832C26.9003 7.04445 27.0136 7.07428 27.1091 7.15781C27.2046 7.21747 27.2582 7.31293 27.2702 7.44418C27.294 7.5635 27.2702 7.67089 27.1986 7.76635L23.0104 13.4759V19.096C23.0104 19.2153 22.9686 19.3167 22.8851 19.4003C22.8016 19.4838 22.7001 19.5255 22.5808 19.5255C22.4615 19.5255 22.3601 19.4838 22.2766 19.4003C22.193 19.3167 22.1513 19.2153 22.1513 19.096ZM35.0473 19.5255C35.1189 19.5255 35.1905 19.5136 35.2621 19.4897H35.28C35.4231 19.4301 35.5067 19.3108 35.5305 19.1318L40.381 7.67686C40.4287 7.56947 40.4287 7.46208 40.381 7.35469C40.3332 7.23537 40.2557 7.15184 40.1483 7.10412C40.0409 7.05639 39.9275 7.05639 39.8082 7.10412C39.7008 7.13991 39.6292 7.2115 39.5934 7.31889L35.101 17.9863L30.6264 7.31889C30.5787 7.2115 30.4951 7.13991 30.3758 7.10412C30.2684 7.05639 30.161 7.05639 30.0536 7.10412C29.9463 7.15184 29.8687 7.23537 29.821 7.35469C29.7732 7.46208 29.7732 7.56947 29.821 7.67686L34.6714 19.2213L34.6893 19.2392C34.6893 19.263 34.6953 19.275 34.7072 19.275C34.743 19.3824 34.8146 19.4539 34.922 19.4897C34.9458 19.5136 34.9876 19.5255 35.0473 19.5255ZM14.4286 41.4916H7.98518C7.86586 41.4916 7.76443 41.4499 7.68091 41.3664C7.59738 41.2828 7.55562 41.1814 7.55562 41.0621V29.3924C7.55562 29.2731 7.59738 29.1716 7.68091 29.0881C7.76443 29.0046 7.86586 28.9628 7.98518 28.9628C8.1045 28.9628 8.20592 29.0046 8.28945 29.0881C8.38491 29.1716 8.43264 29.2731 8.43264 29.3924V40.6146H14.4286C14.5479 40.6146 14.6493 40.6623 14.7328 40.7578C14.8283 40.8413 14.876 40.9428 14.876 41.0621C14.876 41.1814 14.8283 41.2828 14.7328 41.3664C14.6493 41.4499 14.5479 41.4916 14.4286 41.4916ZM22.1513 35.4778V41.0621C22.1513 41.1814 22.193 41.2828 22.2766 41.3664C22.3601 41.4499 22.4615 41.4916 22.5808 41.4916C22.7001 41.4916 22.8016 41.4499 22.8851 41.3664C22.9686 41.2828 23.0104 41.1814 23.0104 41.0621V35.442L27.1986 29.7325C27.2702 29.637 27.294 29.5296 27.2702 29.4103C27.2582 29.279 27.2046 29.1836 27.1091 29.1239C27.0136 29.0404 26.9003 29.0106 26.769 29.0344C26.6497 29.0464 26.5602 29.1 26.5006 29.1955L22.5629 34.5829L18.6432 29.1955C18.5835 29.1 18.4881 29.0464 18.3568 29.0344C18.2375 29.0106 18.1301 29.0404 18.0347 29.1239C17.8199 29.279 17.79 29.4819 17.9452 29.7325L22.1513 35.4778Z" fill="#1E252C"/>
</svg>
